<?xml version="1.0"?>
<svg xmlns="http://www.w3.org/2000/svg" xmlns:xlink="http://www.w3.org/1999/xlink" xmlns:svgjs="http://svgjs.com/svgjs" version="1.1" width="512" height="512" x="0" y="0" viewBox="0 0 458 457" style="enable-background:new 0 0 512 512" xml:space="preserve" class=""><g><path xmlns="http://www.w3.org/2000/svg" d="m229 129.375c21.609375-.023438 39.117188-17.535156 39.144531-39.140625v-18.457031c0-21.621094-17.527343-39.144532-39.144531-39.144532s-39.144531 17.523438-39.144531 39.144532v18.457031c.027343 21.605469 17.535156 39.117187 39.144531 39.140625zm0 0" fill="#1955ae" data-original="#000000" style="" class=""/><path xmlns="http://www.w3.org/2000/svg" d="m402.726562 104.066406c.726563-2.132812.382813-4.488281-.925781-6.324218-1.308593-1.835938-3.421875-2.929688-5.675781-2.9375l-30.199219-.105469h-.027343c-2.253907 0-4.375 1.085937-5.6875 2.921875-1.316407 1.832031-1.664063 4.191406-.941407 6.328125l7.25 21.347656c.960938 2.839844 3.628907 4.75 6.625 4.75h15.703125c2.992188 0 5.65625-1.90625 6.625-4.738281zm0 0" fill="#1955ae" data-original="#000000" style="" class=""/><path xmlns="http://www.w3.org/2000/svg" d="m380 73.460938c16.136719-.019532 29.214844-13.097657 29.234375-29.234376v-14.492187c0-16.144531-13.089844-29.234375-29.234375-29.234375s-29.234375 13.089844-29.234375 29.234375v14.492187c.019531 16.136719 13.097656 29.214844 29.234375 29.234376zm0 0" fill="#1955ae" data-original="#000000" style="" class=""/><path xmlns="http://www.w3.org/2000/svg" d="m100.726562 104.066406c.726563-2.132812.382813-4.488281-.925781-6.324218-1.308593-1.835938-3.421875-2.929688-5.675781-2.9375l-30.199219-.105469c-2.261719-.007813-4.386719 1.074219-5.707031 2.910156-1.324219 1.835937-1.675781 4.195313-.949219 6.339844l7.25 21.347656c.964844 2.839844 3.628907 4.75 6.628907 4.75h15.699218c2.992188 0 5.65625-1.90625 6.625-4.738281zm0 0" fill="#1955ae" data-original="#000000" style="" class=""/><path xmlns="http://www.w3.org/2000/svg" d="m78 73.460938c16.136719-.019532 29.214844-13.097657 29.234375-29.234376v-14.492187c0-16.144531-13.089844-29.234375-29.234375-29.234375s-29.234375 13.089844-29.234375 29.234375v14.492187c.019531 16.136719 13.097656 29.214844 29.234375 29.234376zm0 0" fill="#1955ae" data-original="#000000" style="" class=""/><path xmlns="http://www.w3.org/2000/svg" d="m233.367188 210.507812-5.089844-.035156-5.519532 119.34375 8.066407 5.277344 7.808593-5.238281-1.964843-47.929688zm0 0" fill="#1955ae" data-original="#000000" style="" class=""/><path xmlns="http://www.w3.org/2000/svg" d="m333 106.074219c-17.113281.019531-30.980469 13.890625-31 31v17.601562c24.777344 6.085938 42.207031 28.285157 42.246094 53.800781v13.597657h20.261718l3.746094-46.664063-27.976562-69.335937zm0 0" fill="#1955ae" data-original="#000000" style="" class=""/><path xmlns="http://www.w3.org/2000/svg" d="m169.148438 167.082031c-22.851563.023438-41.367188 18.542969-41.394532 41.390625v110.160156h81.507813l1.765625-38.164062-31.082032-113.386719zm0 0" fill="#1955ae" data-original="#000000" style="" class=""/><path xmlns="http://www.w3.org/2000/svg" d="m156 154.671875v-17.597656c-.019531-17.109375-13.886719-30.980469-31-31h-7.101562l-25.289063 69.320312 3.746094 46.683594h17.398437v-13.597656c.035156-25.519531 17.464844-47.722657 42.246094-53.808594zm0 0" fill="#1955ae" data-original="#000000" style="" class=""/><path xmlns="http://www.w3.org/2000/svg" d="m376.960938 241.921875 4.570312 3.007813 4.375-2.953126-4.472656-55.773437zm0 0" fill="#1955ae" data-original="#000000" style="" class=""/><path xmlns="http://www.w3.org/2000/svg" d="m74.960938 241.921875 4.570312 3.007813 4.375-2.953126-4.472656-55.773437zm0 0" fill="#1955ae" data-original="#000000" style="" class=""/><path xmlns="http://www.w3.org/2000/svg" d="m427 106.074219h-7.101562l-25.289063 69.320312 3.746094 46.683594h59.644531v-85c-.019531-17.113281-13.886719-30.984375-31-31.003906zm0 0" fill="#1955ae" data-original="#000000" style="" class=""/><path xmlns="http://www.w3.org/2000/svg" d="m288.851562 167.082031h-10.644531l-27.617187 112.839844.0625 1.394531 1.53125 37.316406h78.058594v-110.160156c-.023438-22.847656-18.539063-41.367187-41.390626-41.390625zm0 0" fill="#1955ae" data-original="#000000" style="" class=""/><path xmlns="http://www.w3.org/2000/svg" d="m31 106.074219c-17.113281.019531-30.9804688 13.890625-31 31v85h62.507812l3.746094-46.664063-27.976562-69.335937zm0 0" fill="#1955ae" data-original="#000000" style="" class=""/><path xmlns="http://www.w3.org/2000/svg" d="m256.011719 159.886719c-1.269531-2.0625-3.511719-3.320313-5.933594-3.328125l-38.460937-.136719h-.023438c-2.425781 0-4.679688 1.253906-5.953125 3.320313-1.277344 2.0625-1.390625 4.640624-.304687 6.808593l10 20c1.175781 2.355469 3.574218 3.851563 6.207031 3.871094l18.457031.136719h.050781c2.652344 0 5.078125-1.5 6.261719-3.871094l10-20c1.082031-2.164062.96875-4.738281-.300781-6.800781zm0 0" fill="#1955ae" data-original="#000000" style="" class=""/></g></svg>
